<svg height="800" viewBox="0 0 2400 800" width="2400" xmlns="http://www.w3.org/2000/svg"><g fill="none" fill-rule="evenodd" transform="translate(0 67)"><path d="m1978.44411 641.669151-88.84649-99.791357-88.20269 99.791357h-185.41878l181.34129-203.660209-181.34129-203.660209h191.21312l89.70492 98.932936 86.48584-98.932936h184.56036l-180.48286 202.801789 183.05812 204.518629zm-718.49776 0v-641.669151h356.0298v143.14158h-205.16244v91.207153h205.16244v137.561848h-205.16244v126.18778h205.16244v143.57079z" fill="#f60"/><path d="m1109.7228 0v262.676602h-1.71684c-30.88596-35.168048-76.23916-54.164173-122.968702-51.505216-94.013115.826229-175.725783 64.752429-199.153502 155.803279-29.830105-97.859911-107.302534-157.734725-220.399404-157.734725-92.494784 0-165.460507 41.418778-203.660209 109.23398v-84.125187h-191.42772v-91.421758h208.596125v-142.926975h-378.992548v641.669151h170.396423v-269.75857h169.752608c-5.298082 21.045486-7.89423 42.680051-7.725782 64.38152 0 133.913562 102.152012 227.695976 232.846498 227.695976 109.663189 0 181.985097-51.505216 220.184798-145.502235h-145.931445c-14.824918 26.364233-44.305216 40.933771-74.253353 36.697466-47.553622-1.046199-85.620984-39.779552-85.842027-87.344262h297.871833c12.876304 107.302534 95.71386 197.865872 209.23994 197.865872 48.637377.1538 94.135437-24.004292 121.251867-64.38152h1.71684v40.345753h150.22354v-641.669151zm-625.144559 373.842027c7.123458-38.896096 40.934129-67.207154 80.476901-67.385991 40.490611-2.04769 75.818181 27.220864 81.33532 67.385991zm533.722799 170.181818c-55.368104 0-89.704915-51.505216-89.704915-105.585693 0-57.514158 30.04471-112.882265 89.704915-112.882265 59.66021 0 85.84203 55.368107 85.84203 112.882265s-25.10879 105.585693-85.62742 105.585693z" fill="#4d148c"/><path d="m2385.33532 565.055142c-.94212-34.36936-29.40125-61.561252-63.77812-60.937467-34.37651.623786-61.83058 28.830045-61.52513 63.21085.30546 34.381162 28.25634 62.09526 62.63857 62.108137 17.03476.378093 33.46009-6.342143 45.34455-18.552206 11.88447-12.210063 18.1584-28.810991 17.32013-45.829314zm-78.97466 3.219076v42.921013h-13.52012v-93.567809h33.69299c19.74367 0 28.75708 8.584202 28.75708 25.538003.34981 9.687988-6.5358 18.134128-16.09538 19.743666 7.72578 1.28763 10.73025 8.154992 12.44709 21.460507.59071 8.901328 2.54494 17.659146 5.79434 25.967213h-16.09538c-2.63345-10.325277-4.71095-20.784427-6.22355-31.33234-1.40924-7.259016-8.38855-12.039344-15.66617-10.730253zm16.9538-12.017884c13.09091 0 16.9538-7.081967 16.9538-13.090909s-3.64829-13.090909-16.9538-13.090909h-16.9538v26.396423h16.9538zm-77.90164 8.584203c-.34802-31.410313 18.30509-59.922027 47.22527-72.184203s62.38212-5.847631 84.7175 16.240238 29.12262 55.476125 17.18343 84.531148c-11.9392 29.055022-40.24132 48.025037-71.65377 48.026825-20.53721.466933-40.38352-7.426534-54.98997-21.871136-14.60645-14.444603-22.72055-34.201739-22.48246-54.742872z" fill="#f60"/></g></svg>
